<?xml version="1.0" encoding="utf-8"?><!-- Uploaded to: SVG Repo, www.svgrepo.com, Generator: SVG Repo Mixer Tools -->
<svg fill="#000000" width="800px" height="800px" viewBox="0 0 24 24" id="up-direction-2" data-name="Flat Color" xmlns="http://www.w3.org/2000/svg" class="icon flat-color"><path id="primary" d="M21.71,14.17,13.42,5.88a2,2,0,0,0-2.84,0l-8.29,8.3a1,1,0,0,0-.29.71,1,1,0,0,0,.29.7l2.83,2.82a1,1,0,0,0,.71.3,1,1,0,0,0,.71-.3L12,13l5.46,5.46a1,1,0,0,0,1.42,0l2.83-2.83A1,1,0,0,0,21.71,14.17Z" style="fill: rgb(0, 0, 0);"></path></svg>